<?xml version="1.0" encoding="UTF-8"?>
<svg id="Layer_2" data-name="Layer 2" xmlns="http://www.w3.org/2000/svg" xmlns:xlink="http://www.w3.org/1999/xlink" viewBox="0 0 452 68.48">
  <defs>
    <style>
      .cls-1 {
        fill: #000;
      }

      .cls-1, .cls-2, .cls-3, .cls-4, .cls-5, .cls-6, .cls-7, .cls-8, .cls-9, .cls-10, .cls-11 {
        stroke-width: 0px;
      }

      .cls-2 {
        fill: #231e21;
      }

      .cls-3 {
        fill: #718738;
      }

      .cls-4 {
        fill: #3fa648;
      }

      .cls-5 {
        fill: #a87d52;
      }

      .cls-6 {
        fill: #764d29;
      }

      .cls-7 {
        fill: #fff;
      }

      .cls-8 {
        fill: #949699;
      }

      .cls-9 {
        fill: #bd3527;
      }

      .cls-10 {
        fill: #6c5e2f;
      }

      .cls-11 {
        fill: #1e555c;
      }
    </style>
  </defs>
  <g id="Layer_1-2" data-name="Layer 1">
    <path class="cls-11" d="M175.3,25.62c.39.27.65.69.71,1.16,0,.51-.21.9-.83,1.4-2.71,2.26-5.85,3.95-9.23,4.97-.97.88-3.01,4.45-2.33,5.32.42.5,2.9.15,4.15-1.16.46-.53.81-1.15,1.01-1.81.06-.14.14-.27.24-.38.37-.46,1.04-.53,1.5-.16.46.37.53,1.04.16,1.51-.04.05-.09.1-.14.15-.11.11-.24.2-.38.26-.67.22-1.28.57-1.79,1.05-.33.42-.08.95.73.91,1.09,0,2.16-.27,3.13-.78.13-.07.28-.12.43-.13.58-.05,1.1.39,1.14.97.05.58-.39,1.1-.97,1.15-.15,0-.31-.01-.45-.06-1.03-.36-2.14-.46-3.22-.31-.36.02-.64.32-.62.68,0,.19.1.36.25.48.57.38,1.24.57,1.93.57.17.04.33.11.46.23.48.33.61.99.28,1.47-.33.48-.99.61-1.47.28-.11-.07-.2-.17-.28-.27-.28-.62-.76-1.14-1.36-1.48-1.92-.95-4.06-1.4-6.2-1.3-.58,0-1-.06-1.24-.52-.16-.39-.19-.81-.09-1.22.23-1.09.36-2.21.38-3.33v-.1c0-.15,0-.23-.08-.24-.08-.01-.08,0-.15.17-.48,1.05-1.17,2-2.02,2.78-.8.79-1.8,1.36-2.9,1.63-2.26-.94-4.71-1.34-7.15-1.16-.22,0-.33.09-.33.14s.07.07.22.08c3.27.11,6.42,1.27,8.98,3.33.5.34.84.86.95,1.45,0,.59-.34,1.13-.88,1.36-2.49,1.23-5.17,2.05-7.92,2.43.99.5,2.07.8,3.18.88,1.35.02,2.69-.34,3.85-1.04.15-.07.32-.12.49-.13.64-.02,1.18.48,1.2,1.12.02.64-.48,1.18-1.12,1.2-.17,0-.34-.02-.5-.08-.74-.3-1.54-.41-2.33-.33-.57.12-.76.73,0,1.27.94.8,2.07,1.34,3.28,1.59.17.04.32.11.46.21.53.39.65,1.14.26,1.68-.39.53-1.14.65-1.67.26-.13-.11-.25-.24-.34-.38-.64-1.05-1.51-1.94-2.54-2.61-.29-.26-.74-.24-1,.05-.16.17-.22.42-.16.64.2.73.6,1.39,1.16,1.91.11.13.2.28.25.44.21.61-.11,1.27-.72,1.48-.02,0-.05.01-.07.02-.61.21-1.27-.12-1.47-.73,0-.03-.02-.06-.03-.09-.03-.17-.03-.34,0-.51.23-.73.23-1.52,0-2.26-.87-2.67-4.08-3.49-6.18-3.83-1.55-.28-2.09-.63-2.17-1.06-.08-.43.41-.97,1.16-1.27,2.52-.85,5.11-1.48,7.75-1.87.59-.06.63,0,.94,0,.18,0,.33-.14.33-.32,0-.02,0-.03,0-.05,0-.17-.21-.24-.41-.23-.2.01-.44.13-.76.2-1.73.33-3.5.42-5.26.28-4.34-.42-6.13-1.56-6.34-2.64-.8-4.18,13.44-15.12,26.39-16.85.73-.09,1.46-.14,2.19-.14-.02-.03-.05-.06-.08-.07-.73-.17-1.48-.21-2.22-.1v-.13c.06-.22.14-.43.26-.63.2-.3.46-.56.77-.76.67-.42,1.5-.48,2.22-.16.65.29,1.14.86,1.34,1.55.03.11.05.22.07.34.03.05.07.09.13.1l.23.08.45.17.88.37c.28.12.54.26.8.42.23.13.44.28.64.45M168.27,29.15c1.14,0,2.07-.93,2.07-2.07s-.93-2.07-2.07-2.07-2.07.93-2.07,2.07.93,2.07,2.07,2.07M168.48,25.37c-.51,0-.86.85-.77,1.79.09.94.58,1.64,1.09,1.59.51-.05.86-.85.78-1.78s-.58-1.65-1.11-1.6M154.52,26.47c.28.17.58.31.88.42,1.2-.58,2.42-1.09,3.67-1.55-1.16,0-2.01-.17-1.97-.49.14-.86,1.78-2.33,3.58-2.38.7,0,1.39.15,2.04.42.15.05.3.08.45.07.58-.04,1.03-.54.99-1.12-.04-.58-.54-1.03-1.12-.99-.15,0-.3.05-.44.12-.6.36-1.27.59-1.97.67-.52,0-.78-.57-.21-1.16.72-.82,1.62-1.46,2.64-1.85.14-.06.27-.14.38-.24.44-.4.47-1.08.07-1.51-.4-.44-1.07-.47-1.51-.07-.02.02-.04.04-.06.06-.1.11-.19.24-.24.38-.4,1.01-1.05,1.92-1.87,2.63-.19.3-.59.38-.88.19-.22-.14-.33-.41-.28-.67.09-.68.38-1.32.82-1.84.08-.13.14-.27.16-.42.15-.57-.2-1.16-.77-1.3-.57-.15-1.16.2-1.3.77-.02.07-.03.15-.03.22-.04.15-.04.3,0,.45.26.63.34,1.32.24,1.99-.49,2.09-1.59,3.99-3.18,5.44-.65.65-.85,1.33-.17,1.76M144.45,28.81l.15.13c.96.95,1.51,2.22,1.56,3.57v.35c.85-.7,1.77-1.4,2.77-2.08.52-1.17,1.24-2.23,2.15-3.13.49-.5.49-1.3,0-1.79-.5-.49-1.3-.49-1.8,0-.21.21-.34.5-.36.8,0,.03,0,.07,0,.1-.06,1.3-.36,2.57-.9,3.76v.08c-.17.39-.63.57-1.03.4,0,0,0,0,0,0-.23-.11-.4-.33-.44-.58-.13-.66-.13-1.34,0-2,0-.12,0-.24.08-.36.06-.7-.46-1.31-1.16-1.37-.37-.03-.74.1-1.01.37-.03.03-.07.06-.09.09-.13.17-.23.38-.27.59-.06.37.04.74.29,1.02l.06.05ZM257.26,25.32c1.83-.02,3.33,1.45,3.35,3.28,0,.1,0,.21-.01.31.22,1.84-1.1,3.51-2.95,3.73-.21.02-.42.03-.64.01-.86.05-1.71-.22-2.4-.76-.75-.75-1.14-1.78-1.07-2.84-.02-.1-.02-.2,0-.3.02-.06.07-.1.13-.13.07-.01.13-.01.2,0h1.8c.16,0,.27,0,.31.21,0,.09,0,.18,0,.27.04.25.18.47.38.62.46.29,1.06.15,1.35-.3.09-.15.15-.32.15-.49.04-.52-.35-.97-.87-1.01-.02,0-.05,0-.07,0-2.48-.29-3.49-1.35-3.49-3.64s1.26-3.73,3.49-3.73c1.35-.06,2.6.71,3.15,1.94.2.48.31,1,.31,1.52,0,.47-.16.55-.42.55h-1.7c-.24,0-.35-.09-.37-.31-.07-.53-.56-.9-1.09-.83-.45.06-.8.43-.83.88,0,.8.65.98,1.22,1.04M199.06,32.5h2.06c.28,0,.38-.13.38-.41v-10.93c0-.28-.1-.41-.38-.41h-2.06c-.28,0-.38.13-.38.41v10.97c0,.28.1.41.38.41M213.02,20.76c.28,0,.38.13.38.41v10.97c0,.28-.1.41-.38.41h-1.16c-.17.02-.34-.04-.47-.15l-.12-.14-1.92-2.28-2.17-2.5-.81-.94c-.19-.21-.45-.14-.45.15v5.44c0,.28-.1.41-.38.41h-1.77c-.28,0-.38-.13-.38-.41v-10.96c0-.28.1-.41.38-.41h1.16c.17-.02.34.04.46.15l.12.14,4.95,5.71c.2.21.45.14.45-.16v-5.43c0-.28.1-.41.38-.41h1.72ZM225.03,26.58c-.01,1.74,1.39,3.16,3.13,3.18,1.74.01,3.16-1.39,3.18-3.13.01-1.74-1.39-3.16-3.13-3.18h-.02c-1.72-.02-3.13,1.36-3.15,3.08,0,.04,0,.07,0,.11M222.3,26.64c0-3.25,2.63-5.89,5.88-5.89,3.25,0,5.89,2.63,5.89,5.88h0c0,3.26-2.63,5.9-5.88,5.9-3.25,0-5.89-2.63-5.89-5.88h0ZM242.59,32.02l-1.37-4.82c-.04-.12-.01-.26.07-.36.53-.7.81-1.56.81-2.44,0-2.5-1.35-3.64-3.86-3.64h-2.42c-.27,0-.37.1-.37.37v11.02c0,.27.1.37.37.37h1.85c.21,0,.33-.07.36-.23v-4.01c0-.36.46-.33.63-.22.16.1.26.27.3.45l.92,3.64c.09.3.22.38.58.38h1.83c.35,0,.36-.28.3-.51M239.56,24.52c.03.56-.4,1.03-.96,1.06-.05,0-.1,0-.15,0h-.28c-.27,0-.37-.13-.37-.4v-1.33c0-.28.1-.4.37-.4h.28c.56-.05,1.06.37,1.1.94,0,.04,0,.08,0,.12M246.9,27.85c-.27,0-.37.12-.37.4v1.16c0,.27.1.38.37.38h4.71c.27,0,.37.12.37.4v2.01c0,.28-.1.39-.37.39h-7.25c-.27,0-.36-.12-.36-.39v-11.05c0-.27.09-.38.36-.38h7.25c.27,0,.37.12.37.38v2.04c0,.27-.1.4-.37.4h-4.71c-.27,0-.37.12-.37.38v1.16c0,.28.1.4.37.4h3.84c.27,0,.37.12.37.38v1.59c0,.27-.1.38-.37.38l-3.84-.04ZM197.39,32.06l-2.78-10.89c-.02-.25-.25-.43-.5-.41,0,0-.01,0-.02,0h-1.72c-.28,0-.42.09-.5.41l-2.77,10.89c0,.07,0,.14,0,.21,0,.17.09.28.31.28h1.66c.46,0,.61-.06.72-.48l.26-1.07c.07-.31.21-.38.49-.38h1.43c.28,0,.41.07.49.38l.27,1.07c.1.42.24.48.71.48h1.7c.22,0,.31-.1.31-.28,0-.07,0-.14,0-.21M193.76,28.4h-.87c-.19,0-.31,0-.31-.19,0-.11.03-.23.06-.34.15-.62.29-1.23.44-1.85,0-.23.1-.37.24-.37s.23.23.27.37l.42,1.85c.01.11.01.22,0,.34,0,.12-.1.19-.3.19M263.37,24.08c0-.27-.1-.36-.37-.36h-1.43c-.27,0-.37-.1-.37-.37v-2.21c0-.27.1-.37.37-.37h6.16c.27,0,.37.1.37.37v2.21c0,.27-.1.37-.37.37h-1.43c-.27,0-.36.09-.36.36v8.14c0,.27-.1.37-.37.37h-1.8c-.28,0-.37-.1-.37-.37l-.02-8.14ZM218.01,32.15c0,.28-.1.39-.37.39h-1.86c-.27,0-.37-.12-.37-.39v-11c0-.27.1-.38.37-.38h5.27c.27,0,.37.12.37.38v2.24c0,.27-.1.38-.37.38h-2.66c-.27,0-.37.1-.37.37v.8c0,.27.1.37.37.37h2.26c.27,0,.37.12.37.38v1.94c0,.27-.1.38-.37.38h-2.26c-.28,0-.37.09-.37.37v3.75ZM184.87,24.53c.05.51-.33.96-.84,1.01-.05,0-.1,0-.15,0h-1.52c-.27,0-.37-.12-.37-.38v-1.26c0-.27.1-.4.37-.4h1.55c.53-.02.97.39.99.92,0,.04,0,.07,0,.11M188.39,32.02l-2.25-3.78c-.2-.35-.22-.59,0-.83.88-.74,1.37-1.84,1.34-2.99,0-2.4-1.36-3.66-3.93-3.66h-3.59c-.27,0-.37.1-.37.37v11.02c0,.27.1.37.37.37h1.83c.27,0,.37-.1.37-.36v-3.36c-.03-.26.1-.51.33-.63.2-.08.44,0,.63.38l1.05,1.84.55.95.45.94c.11.2.34.31.57.28h2.41c.17,0,.31-.14.31-.31,0-.07-.03-.14-.07-.2M253.1,45.87c-.11-.06-.24-.1-.37-.09-.21,0-.35.2-.46.35-.83,1.08-2.12,1.72-3.49,1.72-2.39-.12-4.23-2.16-4.11-4.56.11-2.22,1.89-3.99,4.11-4.11.5,0,1,.07,1.48.22.8.28,1.5.78,2.02,1.44.1.16.25.29.42.37.05,0,.1,0,.15,0,.06.01.12.01.19,0,.44-.19,1.99-.93,2.26-1.06.27-.13.42-.24.43-.5,0-.22-.07-.43-.19-.62-.67-1.22-1.69-2.2-2.92-2.84-1.21-.62-2.55-.93-3.91-.93-4.31-.08-7.87,3.35-7.95,7.65,0,.16,0,.32,0,.49-.19,4.31,3.15,7.95,7.46,8.13.16,0,.32,0,.49,0,1.02,0,2.03-.18,2.99-.52.86-.32,1.65-.8,2.33-1.42.33-.3.64-.63.91-.99.29-.34.52-.74.67-1.16.01-.08.01-.16,0-.23-.02-.18-.14-.34-.31-.42l-2.27-1.08M186.1,45.09l-.88-2.43c-.2-.56-.55-.62-.69-.62s-.49.06-.69.62l-.88,2.43c-.12.38,0,.63.45.63h2.23c.43,0,.57-.24.45-.63M191.61,51.47h-2.97c-.29,0-.56-.17-.65-.45l-.52-1.4c-.13-.42-.54-.69-.98-.65h-3.91c-.44-.04-.85.23-.98.65l-.52,1.4c-.1.28-.36.46-.65.45h-3.03c-.41,0-.55-.3-.41-.66l5.57-14.54c.17-.46.38-.71.79-.71h2.33c.41,0,.6.24.79.71l4.65,12.14.92,2.4c.13.36,0,.66-.42.66M228.18,50.77c0,.09,0,.19,0,.28,0,.24-.12.38-.43.38h-2.33c-.64,0-.83-.07-.98-.64l-.35-1.44c-.12-.43-.28-.52-.66-.52h-1.93c-.38,0-.57.09-.66.52l-.35,1.44c-.15.57-.34.64-.98.64h-2.24c-.3,0-.42-.14-.42-.38,0-.09,0-.19,0-.28l3.73-14.71c.12-.43.3-.55.69-.55h2.33c.38,0,.57.12.69.55l3.9,14.71ZM223.18,45.84c.27,0,.41-.09.41-.26,0-.16-.02-.33-.06-.49-.2-.84-.38-1.66-.58-2.5,0-.19-.11-.5-.35-.5s-.27.19-.34.5l-.59,2.5c-.04.15-.06.3-.07.45,0,.19.16.26.42.26h1.16M214.86,35.48h-2.77c-.38,0-.52.16-.52.55v14.89c0,.38.14.55.52.55h2.77c.38,0,.52-.16.52-.55v-14.85c0-.38-.14-.55-.52-.55M209.04,47.14h-2.24c-.36,0-.5-.14-.51-.48v-10.63c0-.37-.15-.55-.52-.55h-2.64c-.38,0-.52.17-.52.55v14.87c0,.38.14.55.52.55h5.92c.37,0,.52-.16.52-.55v-3.21c0-.38-.15-.55-.52-.55M266.56,45.09c.36,0,.5-.16.5-.53v-2.15c0-.37-.14-.54-.5-.54h-5.2c-.36,0-.5-.15-.5-.52v-1.54c0-.36.14-.52.5-.52h6.36c.36,0,.5-.16.5-.52v-2.74c0-.37-.14-.53-.5-.53h-9.77c-.36,0-.5.16-.5.53v14.89c0,.36.14.52.5.52h9.77c.36,0,.5-.16.5-.52v-2.74c0-.36-.14-.52-.5-.52h-6.37c-.36,0-.5-.16-.5-.52v-1.51c0-.37.14-.52.5-.52h5.21ZM200.55,47.71c0-.38-.14-.55-.52-.55h-2.24c-.36,0-.5-.14-.51-.48v-10.65c0-.37-.14-.55-.52-.55h-2.64c-.38,0-.52.17-.52.55v14.87c0,.38.14.55.52.55h5.92c.38,0,.52-.16.52-.55v-3.21M233.78,45.57c-.01-.05-.04-.1-.07-.14-.05-.06-.11-.09-.19-.09-.17,0-.27.12-.27.33v5.24c0,.38-.14.55-.51.55h-2.42c-.38,0-.52-.16-.52-.55v-14.85c0-.38.14-.55.52-.55h1.41c.35-.05.7.1.89.4.13.24.24.49.34.74.57,1.26,1.16,2.51,1.7,3.78.14.3.27.62.41.92.02.09.05.18.09.26.04.05.1.07.16.07.16,0,.26-.12.26-.33v-5.29c0-.38.14-.55.52-.55h2.4c.37,0,.52.16.52.55v14.85c0,.38-.15.55-.52.55h-1.39c-.46.09-.9-.19-1.02-.64-.77-1.72-1.55-3.49-2.33-5.16"/>
    <g>
      <polygon class="cls-9" points="87.67 54.63 86.19 54.63 85 51 83.83 54.63 82.36 54.63 80.33 47.27 82.23 47.27 83.18 51.15 84.37 47.27 85.65 47.27 86.83 51.15 87.79 47.27 89.68 47.27 87.67 54.63"/>
      <path class="cls-9" d="M68.29,58.79l.62,1.96h-1.29l.66-1.96ZM67.54,56l-2.67,7.33h1.89l.36-1.09h2.26l.3,1.09h1.93l-2.68-7.33h-1.39Z"/>
      <path class="cls-9" d="M92.23,50.7c-.12-.12-.29-.18-.46-.16-.16-.02-.33.04-.44.16-.22.22-.25.6-.25,1.2-.07.42.02.85.25,1.2.12.11.28.17.44.15.17.01.33-.04.46-.15.23-.35.32-.78.25-1.2,0-.55,0-.94-.25-1.2M93.56,53.98c-1.01.97-2.6.97-3.61,0-.5-.59-.72-1.36-.61-2.13-.1-.76.12-1.54.61-2.13,1.01-.97,2.6-.97,3.61,0,.49.59.72,1.36.61,2.13.11.76-.12,1.54-.61,2.13"/>
      <path class="cls-9" d="M97.9,50.83c-.14-.19-.37-.29-.6-.29-.38,0-.69.3-.69.68,0,.03,0,.05,0,.08v3.33h-1.69v-5.55h1.66v.46c.35-.33.82-.52,1.31-.52.49-.03.96.16,1.3.52l-1.29,1.3Z"/>
      <path class="cls-9" d="M101.17,54.63c-.88.07-1.65-.58-1.73-1.46,0-.06,0-.12,0-.19v-5.71h1.69v5.59c-.02.16.09.31.26.34.02,0,.05,0,.08,0h.59v1.43h-.89Z"/>
      <path class="cls-9" d="M104.88,50.54c-.64,0-.71.51-.71,1.31s.07,1.31.71,1.31.7-.51.7-1.31-.07-1.31-.7-1.31M105.63,54.63v-.46c-.33.35-.79.54-1.27.52-.5.01-.99-.17-1.36-.5-.45-.69-.64-1.52-.52-2.33-.12-.82.06-1.64.52-2.33.36-.34.85-.52,1.35-.51.45-.02.88.14,1.2.46v-2.2h1.69v7.35h-1.61Z"/>
      <path class="cls-9" d="M74.08,59.25c-.62,0-.66.54-.66,1.11s0,1.11.66,1.11.66-.54.66-1.11,0-1.11-.66-1.11M73.92,65.26c-.77.06-1.53-.2-2.09-.73l1.06-1.06c.25.25.6.38.95.35.44.05.84-.26.9-.7,0-.05,0-.09,0-.14v-.4c-.32.31-.76.48-1.2.46-.48.02-.95-.16-1.3-.49-.51-.51-.52-1.13-.52-2.14s0-1.62.52-2.13c.35-.34.82-.52,1.31-.5.46-.01.9.18,1.2.52v-.46h1.68v5.16c0,1.26-1.03,2.28-2.3,2.27-.07,0-.14,0-.22-.01"/>
      <path class="cls-9" d="M80.36,59.54c-.15-.18-.38-.28-.61-.29-.38,0-.69.32-.69.71,0,.02,0,.04,0,.06v3.31h-1.68v-5.54h1.65v.46c.36-.33.82-.51,1.31-.52.49-.03.96.16,1.3.52l-1.27,1.3Z"/>
      <path class="cls-9" d="M84.29,59.41c-.27-.21-.64-.21-.91,0-.22.22-.24.61-.24,1.2s0,.95.24,1.2c.27.21.65.21.91,0,.22-.22.24-.61.24-1.2s0-.94-.24-1.2M85.62,62.69c-.46.49-1.11.75-1.78.72-.67.03-1.33-.23-1.79-.72-.49-.59-.71-1.37-.6-2.13-.1-.76.12-1.52.6-2.12.46-.49,1.12-.75,1.79-.72.67-.03,1.32.23,1.78.72.49.59.72,1.36.61,2.12.11.76-.11,1.54-.61,2.13"/>
      <path class="cls-9" d="M88.91,59.32v4.01h-1.75v-4.01h-.5v-1.31h.5v-.48c-.02-.89.69-1.62,1.58-1.64.06,0,.12,0,.17,0h.89v1.43h-.59c-.16-.02-.31.1-.34.26,0,.03,0,.05,0,.08v.36h.93v1.31h-.89Z"/>
      <path class="cls-9" d="M92.84,59.41c-.12-.11-.29-.17-.46-.16-.16,0-.32.05-.44.16-.23.35-.32.78-.25,1.2-.07.42.02.85.25,1.2.12.11.28.17.44.15.17.01.33-.04.46-.15.23-.36.32-.78.25-1.2.07-.42-.02-.85-.25-1.2M94.17,62.69c-1,.98-2.61.98-3.61,0-.5-.59-.72-1.36-.61-2.13-.1-.76.12-1.53.61-2.12,1-.98,2.6-.98,3.61,0,.49.59.72,1.36.61,2.12.11.76-.11,1.54-.61,2.13"/>
      <path class="cls-9" d="M98.52,59.54c-.15-.18-.37-.29-.6-.29-.38,0-.69.32-.69.71,0,.02,0,.04,0,.06v3.31h-1.71v-5.54h1.66v.46c.36-.33.84-.52,1.33-.52.49-.03.96.16,1.3.52l-1.3,1.3Z"/>
      <path class="cls-9" d="M102.77,59.56c-.13-.29-.42-.46-.73-.43-.31-.02-.6.15-.73.43-.06.14-.1.28-.1.43h1.66c0-.15-.03-.3-.1-.43M101.2,61.12c.02.5.44.89.93.87.02,0,.04,0,.05,0,.43.03.86-.14,1.14-.47l1.01,1.02c-.55.6-1.34.92-2.15.88-1.2,0-2.64-.45-2.64-2.85-.19-1.36.75-2.62,2.11-2.81.12-.02.25-.03.37-.02,1.33-.06,2.45.97,2.51,2.29,0,.11,0,.23,0,.34v.76h-3.33Z"/>
      <path class="cls-9" d="M107.12,63.41c-.88.09-1.76-.2-2.4-.81l1.09-1.09c.37.33.85.5,1.35.46.25,0,.72-.07.72-.36s-.07-.31-.4-.35l-.87-.08c-.95-.1-1.61-.53-1.61-1.61.07-1.09,1.02-1.92,2.11-1.85.04,0,.07,0,.1,0,.79-.09,1.59.16,2.19.69l-1.03,1.04c-.34-.26-.77-.38-1.2-.34-.42,0-.55.2-.55.32s0,.26.36.31l.85.07c.9-.03,1.65.68,1.68,1.58,0,.04,0,.07,0,.11,0,1.31-1.12,1.89-2.4,1.89"/>
      <path class="cls-9" d="M111.84,63.33c-.88.07-1.65-.59-1.71-1.47,0-.05,0-.11,0-.16v-2.4h-.51v-1.27h.51v-1.6h1.69v1.6h.88v1.3h-.88v2.27c-.02.16.1.31.26.34.03,0,.05,0,.08,0h.54v1.41h-.85Z"/>
      <path class="cls-9" d="M116.39,59.54c-.15-.18-.38-.28-.61-.29-.38,0-.68.31-.68.69,0,.03,0,.05,0,.08v3.31h-1.69v-5.54h1.65v.46c.36-.33.82-.51,1.31-.52.49-.03.97.16,1.31.52l-1.29,1.3Z"/>
      <path class="cls-9" d="M120.43,64c-.09.27-.24.52-.43.73-.32.32-.75.49-1.2.47h-.68v-1.53h.36c.27.04.52-.14.56-.41l.16-.47-1.85-5.01h1.78l.94,2.88.9-2.88h1.77l-2.3,6.21Z"/>
      <path class="cls-5" d="M120.57,41.56c-28.18-2.49-18.03,1.13-47.42-1.36,8.88-.64,6.49.21,15.26-.47,4.39-.35,7.75.47,11.62,0,8.15-.69,13.93.38,20.54,1.87"/>
      <path class="cls-5" d="M124.75,43.98c-18.81-2.08-7.4,2.05-36.82-.43,8.88-.64,5.71.46,14.42-.22,2.53-.17,5.06-.47,7.56-.9,8.41-.42,8.2.06,14.79,1.55"/>
      <path class="cls-5" d="M108.75,36.16c.13.24-.26.32-1.07.28-27.33-2.4-18.86,2.4-40.24.73,2.52,0,.76.13,4.73,0,13.33-.48,11.02-4.69,36.57-1"/>
      <path class="cls-6" d="M85.06,26.59c-1.45,1.17-2.79,2.47-3.98,3.91-1.6,2.26-.69,6.24-.69,6.24l-.66.18s-.59-4.36-.89-5.85c-.73-1.98-1.65-3.88-2.73-5.7l.23-.49s2.21,3.6,2.4,4.01c.29.5.71.91,1.2,1.2.24.07.31,0,.42-.08.42-.43,4.15-3.7,4.15-3.7l.54.29Z"/>
      <path class="cls-3" d="M73.74,22.62c1.51-1.21,3.46-1.74,5.37-1.47,1.83.5,3.72.73,5.61.67,3.08,0,5.49,2.4,4.07,3.39-1.42.98-1.95,1.78-4.48,1.37-2.54-.41-6.78-1.55-10.12-1.2-3.34.35-9.29.16-8.03-.97,1.26-1.13,7.57-1.78,7.57-1.78"/>
      <path class="cls-6" d="M80.58,28.26c.21.38.07.85-.3,1.06-.42.09-.85-.15-.97-.56-.21-.36-.09-.82.27-1.04,0,0,.01,0,.02,0,.42-.11.86.13.98.55"/>
      <path class="cls-6" d="M103.81,15.76s-7.07,6.18-9.16,8.68c-2.32,2.76-2.4,5.13-2.46,8.41-.07,2.2.12,7.44.12,7.44l-1.2.7s-1.44-11.31-2.1-14.61c-.66-3.31-4.62-9.07-4.62-9.07l.5-1.2s4.95,6.65,5.32,7.03c.75.8,1.97.94,2.87.32,2.4-2.4,8.41-7.7,8.41-7.7h2.31Z"/>
      <path class="cls-3" d="M71.81,13.98s2.78-.46,3.34-1.2c.75-.98,1.94-1.51,3.16-1.41,3.03-.41,5.98-1.33,8.7-2.73,2.16-1.2,4.81-3.7,10.05-2.4,5.24,1.3,11.18,4.21,13.7,4.6,2.52.4,4.16,3.97,4.67,4.51.52.54-.19.9-.89,1.2-1.06.71-2.38.92-3.61.58-2.35-.48-4.72-.8-7.11-.95-1.48,0-6.98-.26-5.78.7,1.2.96,1.86,3-.99,2.73-2.85-.28-4.45-1.2-5.75-.82-1.3.38-4.67.99-5.07.24-.4-.74-.4-2.22-2.34-1.55-1.95.67-4.94,1.47-6.62,1.14-1.68-.32-2.49-2.16-3.13-2.16s-5.37-2.09-2.34-2.4"/>
      <path class="cls-6" d="M92.62,20.38c.42.71.19,1.63-.52,2.06-.02.01-.04.02-.05.03-.84.19-1.67-.3-1.92-1.12-.42-.72-.18-1.64.54-2.06.01,0,.03-.02.04-.02.83-.19,1.67.3,1.92,1.12"/>
      <path class="cls-6" d="M115.61,24.62s-5.36,3.28-6.83,5.31c-2.02,2.76-1.85,10.49-1.85,11.02-.07.7-.07,1.41,0,2.12l-.88.67s-1-8.81-1.45-11.39c-.46-2.58-4.21-7.94-4.21-7.94l.42-.92s5.01,6.33,5.42,6.45c.41.12.7.2.88,0,2.05-2.43,4.59-4.38,7.46-5.73l1.03.42Z"/>
      <path class="cls-3" d="M122.33,24.44c-4.03,2.56-9.39,1.63-9.78,1.63-.77,0-3.52-.99-5.06-1.05-.36,0-3.93.3-4.01.34-.08.04-4.13,0-4.63,0s-2.2-.74-2.61-.65c-.41.1-1.2-.31-1.72-.54-.52-.23.19-1.85.48-2.34,1.94-1.14,3.98-2.11,6.09-2.9,1.88-.65,3.86-.95,5.84-.89.6,0,4.9.34,5.11.45.2.11,7.71,1.97,8.15,2.23,0,0,5.07,1.89,2.19,3.71"/>
      <path class="cls-6" d="M107.67,27.17c.32.57.12,1.29-.44,1.62-.65.14-1.29-.23-1.49-.87-.32-.57-.12-1.29.44-1.62.65-.15,1.31.23,1.5.87"/>
    </g>
    <g>
      <rect class="cls-2" x="339.99" y="52.21" width="1.02" height="7.64"/>
      <polygon class="cls-2" points="350.92 59.85 349.95 59.85 347.9 54.32 348.91 54.32 350.46 58.93 350.48 58.93 351.99 54.32 352.95 54.32 350.92 59.85"/>
      <path class="cls-2" d="M368.13,59.84h.92v-5.52h-.92v5.52ZM368.13,53.33h.92v-1.13h-.92v1.13Z"/>
      <path class="cls-2" d="M385.42,59.84h.9v-5.52h-.9v5.52ZM385.42,53.33h.9v-1.13h-.9v1.13Z"/>
      <rect class="cls-2" x="415.24" y="52.21" width=".9" height="7.64"/>
      <rect class="cls-2" x="444.92" y="52.21" width=".9" height="7.64"/>
      <path class="cls-2" d="M342.52,54.32h.86v.88c.35-.66,1.05-1.06,1.8-1.02,1.46,0,1.91.84,1.91,2.02v3.64h-.92v-3.74c.05-.57-.37-1.08-.94-1.13-.06,0-.13,0-.19,0-.85-.04-1.58.62-1.61,1.48,0,.09,0,.18.01.26v3.12h-.92v-5.51Z"/>
      <path class="cls-2" d="M357.58,56.56c-.01-.87-.72-1.57-1.59-1.57s-1.58.7-1.58,1.57h3.17ZM358.46,58.09c-.19,1.14-1.21,1.96-2.37,1.89-1.76,0-2.6-1.22-2.64-2.92-.12-1.46.96-2.75,2.42-2.87.06,0,.12,0,.18,0,1.95,0,2.55,1.83,2.5,3.17h-4.08c-.11.89.53,1.7,1.42,1.81.1.01.2.01.3,0,.7.07,1.33-.43,1.43-1.13l.85.05Z"/>
      <path class="cls-2" d="M360,58.11c0,.81.75,1.13,1.49,1.13.57,0,1.33-.14,1.33-.82s-.89-.82-1.81-1.03c-.92-.2-1.81-.51-1.81-1.56s1.13-1.58,2.07-1.58c1.22,0,2.19.4,2.26,1.74h-.92c-.06-.71-.68-.94-1.28-.94s-1.13.16-1.13.71.96.76,1.81.96c.85.2,1.81.51,1.81,1.57,0,1.32-1.23,1.75-2.36,1.75s-2.26-.51-2.34-1.88l.87-.06Z"/>
      <path class="cls-2" d="M366.02,54.32h1.13v.8h-1.13v3.39c0,.42.11.49.68.49h.42v.8h-.69c-.95,0-1.32-.19-1.32-1.21v-3.47h-.94v-.8h.94v-1.66h.92v1.66Z"/>
      <path class="cls-2" d="M370.41,54.32h.86v.88c.35-.66,1.05-1.06,1.8-1.02,1.46,0,1.91.84,1.91,2.02v3.64h-.91v-3.74c.05-.57-.37-1.08-.94-1.13-.06,0-.13,0-.19,0-.85-.04-1.58.62-1.61,1.48,0,.09,0,.18.01.26v3.12h-.92v-5.51Z"/>
      <path class="cls-2" d="M380.2,56.98c0-.97-.43-1.99-1.57-1.99s-1.64.96-1.64,2.01.36,2.11,1.56,2.11,1.65-1.13,1.65-2.14M381.1,59.38c0,1.8-.82,2.71-2.58,2.71-1.04,0-2.26-.42-2.26-1.63h.9c0,.67.84.9,1.44.9,1.13,0,1.66-.86,1.66-2.1v-.36c-.33.65-1.01,1.04-1.73,1.01-1.38,0-2.49-1.13-2.48-2.51,0-.1,0-.19.02-.29-.17-1.43.84-2.73,2.27-2.91.09-.01.19-.02.28-.02.68-.02,1.32.33,1.65.93v-.79h.86l-.03,5.06Z"/>
      <path class="cls-2" d="M387.69,54.32h.86v.88c.35-.66,1.05-1.06,1.8-1.02,1.46,0,1.91.84,1.91,2.02v3.64h-.91v-3.74c.05-.57-.37-1.08-.94-1.13-.06,0-.13,0-.19,0-.85-.04-1.58.62-1.61,1.48,0,.09,0,.18.01.26v3.12h-.92v-5.51Z"/>
      <path class="cls-2" d="M396.5,54.32h.89v1.13c.32-.83,1.14-1.36,2.03-1.3v.97c-1.47,0-2,.84-2,2.26v2.45h-.92v-5.51Z"/>
      <path class="cls-2" d="M404.63,59.85h-.86v-.87c-.36.65-1.05,1.04-1.8,1.01-1.46,0-1.9-.84-1.9-2.02v-3.64h.9v3.74c-.05.58.39,1.08.97,1.13.05,0,.11,0,.16,0,.86.04,1.59-.62,1.64-1.48,0-.09,0-.17,0-.26v-3.13h.92l-.02,5.52Z"/>
      <path class="cls-2" d="M405.93,54.32h.86v1.13c.32-.83,1.14-1.36,2.03-1.3v.97c-1.46,0-2,.84-2,2.26v2.45h-.9v-5.51Z"/>
      <path class="cls-2" d="M412.9,56.99c-.52.23-1.08.36-1.65.38-.6.1-1.13.32-1.13.99s.51.81,1.07.81c1.2,0,1.68-.76,1.68-1.25l.02-.94ZM414.34,59.82c-.2.12-.43.17-.66.16-.46,0-.77-.26-.77-.86-.48.56-1.2.88-1.94.86-1.01,0-1.83-.45-1.83-1.56s.93-1.51,1.86-1.69c.94-.18,1.86-.12,1.86-.81s-.66-.93-1.23-.93c-.77,0-1.33.24-1.38,1.05h-.9c.06-1.37,1.13-1.85,2.34-1.85.99,0,2.08.23,2.08,1.52v2.85c0,.43,0,.62.28.62.09.02.19.02.28,0v.64Z"/>
      <path class="cls-2" d="M423.05,55c-1.21,0-1.68,1.04-1.68,2.08s.49,2.1,1.74,2.1,1.66-1.06,1.66-2.15-.53-2.03-1.72-2.03M420.48,54.32h.92v.75c.37-.61,1.05-.95,1.76-.88,1.44.02,2.58,1.2,2.56,2.64,0,.09,0,.19-.02.28.18,1.4-.81,2.68-2.2,2.86-.1.01-.21.02-.31.02-.7.03-1.37-.3-1.79-.87v2.86h-.92v-7.65Z"/>
      <path class="cls-2" d="M430.59,56.56c-.07-.88-.84-1.53-1.72-1.45-.77.06-1.39.68-1.45,1.45h3.17ZM431.47,58.09c-.19,1.14-1.21,1.95-2.36,1.89-1.76,0-2.6-1.22-2.66-2.92-.12-1.47.97-2.75,2.44-2.87.05,0,.1,0,.16,0,1.95,0,2.55,1.83,2.51,3.17h-4.15c-.1.9.54,1.71,1.44,1.81.1.01.19.01.29,0,.7.06,1.32-.44,1.42-1.13l.9.05Z"/>
      <path class="cls-2" d="M434.85,59.18c.95,0,1.72-.76,1.72-2.09s-.77-2.1-1.72-2.1-1.73.76-1.73,2.1.77,2.09,1.73,2.09M434.85,54.19c1.45-.04,2.65,1.1,2.69,2.55,0,.12,0,.24-.01.35.1,1.48-1.03,2.76-2.51,2.86-1.48.1-2.76-1.03-2.86-2.51,0-.11,0-.23,0-.35-.16-1.44.88-2.73,2.32-2.89.12-.01.24-.02.37-.01"/>
      <path class="cls-2" d="M406.33,30.73h1.83c1.27-.12,2.51.46,3.22,1.53.55.93.83,1.99.8,3.07,0,2.35-.88,4.52-4.04,4.52h-1.81v-9.12ZM402.09,43.61h5.8c6.29,0,8.53-3.8,8.53-8.31.06-1.84-.47-3.65-1.53-5.15-2.15-3.08-5.46-3.08-7.32-3.08h-5.48v16.55ZM392.34,32.2h.07l1.69,5.65h-3.49l1.73-5.65ZM395.22,41.24l.8,2.38h4.6l-6.62-16.56h-3.33l-6.61,16.55h4.52l.87-2.38h5.77ZM375.41,43.61h4.06v-6.3h4.81v-3.72h-4.81v-2.86h4.99v-3.67h-9.04v16.55ZM368.18,43.61h4.24v-16.55h-4.24v16.55Z"/>
      <path class="cls-8" d="M352.2,17.53c-.18-.26-.37-.52-.58-.76-.2-.22-.43-.4-.69-.55-.2-.12-.34-.16-.54-.28-.22-.12-.42-.26-.61-.43-.18-.17-.34-.35-.47-.55-.21-.26-.38-.55-.5-.86-.12-.26-.19-.54-.21-.82-.05-.3-.05-.6,0-.89.03-.22.08-.44.15-.66.04-.13.09-.25.16-.37.06-.11.14-.22.23-.31v-5.16h.31v5.26c0,.25.03.5.07.74.05.23.13.44.26.63.13.22.32.41.54.54.1.09.23.15.36.19h.2c-.09-.29-.13-.58-.13-.88-.01-.32.03-.64.14-.94v-5.56h.31v5.05c.07-.09.14-.17.21-.25.07-.06.15-.11.23-.16.07-.04.16-.07.24-.09.11-.03.22-.04.34-.03.1-.01.2-.01.29,0,.08.02.16.05.24.09.08.04.16.09.23.16.08.08.16.16.23.25v-5.02h.31v5.57c.1.3.14.62.14.94,0,.3-.04.6-.12.88h.19c.14-.04.26-.1.37-.19.23-.13.41-.32.54-.54.13-.19.21-.41.26-.63.04-.25.06-.5.06-.75v-5.28h.32v5.16c.09.09.16.19.23.31.06.12.11.24.15.37.07.21.12.43.16.66.04.3.04.6,0,.89-.03.28-.1.56-.21.82-.12.31-.29.6-.5.86-.14.2-.3.39-.49.55-.18.17-.38.31-.6.43-.2.12-.34.16-.54.28-.26.16-.49.34-.7.55-.2.24-.39.5-.56.76"/>
      <path class="cls-8" d="M352.2,21.97c-.43-.72-1.02-1.35-1.72-1.82,0,0-.26-.18-.95-.56-.47-.3-.89-.68-1.22-1.13-1.82-2.7-.82-5.13-.63-5.08v-7.49h.31v8.15s-.16.94,1.27,1.57c1.24.67,2.27,1.68,2.95,2.91.68-1.24,1.7-2.25,2.95-2.91,1.42-.63,1.27-1.57,1.27-1.57V5.88h.31v7.55c.18,0,1.13,2.38-.64,5.08-.33.45-.74.84-1.22,1.13-.68.38-.95.56-.95.56-.69.46-1.27,1.06-1.71,1.76"/>
      <path class="cls-8" d="M352.2,26.46c-.37-.98-1.15-1.74-2.14-2.09-5.75-2.13-3.66-6.65-3.47-6.87V5.88h.33v11.6c.02.28.08.56.17.82.14.44.4.83.76,1.13.6.32,1.22.61,1.85.87.96.54,1.81,1.27,2.5,2.13.68-.87,1.53-1.6,2.49-2.16.62-.25,1.22-.53,1.81-.85.36-.29.62-.69.75-1.13.1-.27.16-.54.18-.82V5.88h.32v11.63c.2.21,2.26,4.73-3.46,6.87-.97.36-1.72,1.12-2.08,2.09"/>
      <path class="cls-8" d="M343.75,43.61h-3.73v-3.28h3.7c1.63,0,2.95-1.32,2.95-2.95h0v-10.31h3.19v10.44c.01,3.37-2.71,6.11-6.08,6.12h-.03"/>
      <path class="cls-8" d="M360.55,43.61h3.73v-3.28h-3.72c-1.63,0-2.94-1.33-2.94-2.96v-10.3h-3.16v10.44c-.01,3.37,2.71,6.11,6.08,6.12h.03"/>
      <path class="cls-8" d="M343.69,47.59h-3.67v-3.3h3.7c3.74.03,6.8-2.98,6.84-6.72,0-.07,0-.14,0-.22v-10.28h3.18v10.44c.02,5.55-4.46,10.07-10.01,10.1-.01,0-.03,0-.05,0"/>
      <path class="cls-2" d="M441.15,55c-1.22,0-1.68,1.04-1.68,2.08s.49,2.1,1.74,2.1,1.66-1.06,1.66-2.15-.53-2.03-1.72-2.03M438.59,54.32h.92v.75c.37-.61,1.05-.95,1.76-.88,1.43.02,2.58,1.2,2.56,2.64,0,.09,0,.19-.02.28.18,1.4-.81,2.68-2.21,2.86-.1.01-.21.02-.31.02-.7.03-1.37-.3-1.79-.87v2.86h-.92v-7.65Z"/>
      <path class="cls-2" d="M451.04,56.56c-.02-.87-.72-1.56-1.59-1.57-.87,0-1.58.7-1.58,1.57h3.17ZM451.92,58.09c-.19,1.14-1.21,1.96-2.37,1.89-1.76,0-2.6-1.22-2.65-2.92-.12-1.47.97-2.75,2.44-2.87.06,0,.11,0,.17,0,1.95,0,2.55,1.83,2.5,3.17h-4.13c-.11.89.53,1.7,1.42,1.81.1.01.2.01.3,0,.7.06,1.33-.43,1.44-1.13l.9.05Z"/>
    </g>
    <g>
      <ellipse class="cls-10" cx="308.28" cy="44.05" rx="1.25" ry="1.48"/>
      <path class="cls-4" d="M316.12,33.89c0,4.62-3.22,8.36-7.84,8.36s-7.83-3.74-7.83-8.36c0-6.46,5.42-13.67,7.8-17.28,2.47,3.89,7.87,10.64,7.87,17.28Z"/>
      <path class="cls-4" d="M317.04,18.79c-.91-6.15-3.87-10.2-8.8-11.17-4.61.88-7.82,5.02-8.81,11.23-3.75,2.82-6.19,7.38-6.19,12.54,0,10,6.73,15.5,15.03,15.5s15.03-5.97,15.03-15.5c0-5.19-2.47-9.78-6.26-12.59ZM308.27,46.09c-5.76,0-11.77-4.98-11.77-14.04,0-4.57,1.49-9.48,5.7-11.05.16-.06.28-.21.29-.38.6-5.53,2.2-9.31,5.75-10.09,3.78.87,5.5,5.27,5.76,9.93,0,.17.11.33.27.4,4.61,2.01,5.76,6.58,5.76,11.19,0,8.63-6.04,14.04-11.77,14.04Z"/>
      <path class="cls-1" d="M294.9,65.85v2.36h-2.68c0-.18,0-.36,0-.53,0-1.52.01-3.03,0-4.55,0-.58-.02-.58.57-.59.51,0,1.01.02,1.52-.02.36-.03.57.11.77.38.57.78,1.15,1.55,1.73,2.32.34.45.43.45.79,0,.62-.78,1.23-1.57,1.83-2.36.21-.28.42-.36.83-.36h1.39c.4,0,.61.03.61.37,0,.21,0,.43,0,.64,0,1.41,0,2.82,0,4.23,0,.15,0,.3,0,.5-.67,0-1.92,0-2.48-.01-.16,0-.28-.13-.29-.29,0-.42,0-1.2,0-1.56,0-.15,0-.3,0-.6-.18.2-.29.29-.37.4-.41.59-.81,1.19-1.21,1.79-.35.5-1.08.52-1.45.03-.4-.54-.78-1.09-1.17-1.63-.1-.14-.22-.28-.43-.52Z"/>
      <path class="cls-1" d="M302.88,68.24c.5-.85.93-1.58,1.37-2.32.63-1.06,1.26-2.13,1.92-3.18.09-.14.33-.27.5-.28.56-.03,1.13-.03,1.7,0,.18,0,.42.09.51.22,1.16,1.78,2.29,3.58,3.43,5.38.02.03,0,.09.01.18-.91,0-1.81,0-2.71-.01-.1,0-.24-.14-.28-.24-.12-.33-.35-.42-.68-.41-.75.02-1.5-.01-2.25.02-.17,0-.43.14-.5.29-.13.29-.3.37-.6.36-.76-.02-1.52,0-2.43,0ZM306.81,66.01h1.57c-.26-.5-.47-.91-.69-1.32l-.16.02c-.23.41-.46.82-.72,1.29Z"/>
      <path class="cls-1" d="M313.1,68.18v-5.64c1.17,0,2.37,0,3.56,0,.87,0,1.75-.04,2.62-.08.4-.02.6.14.61.56,0,.2.04.4.11.59.13.29-.04.34-.36.33-.97-.04-1.93.03-2.9,0-.17,0-.36-.04-.5.03-.15.07-.31.23-.34.38-.06.26.15.33.38.33.89-.01,1.78,0,2.67-.05.44-.02.62.18.64.58,0,.11,0,.21,0,.32,0,.72-.05.74-.76.72-.84-.02-1.69-.01-2.53-.03-.32,0-.45.11-.42.43.04.49.06.98.09,1.53h-2.87Z"/>
      <path class="cls-1" d="M320.76,68.21c.04-.53.09-1.01.1-1.5,0-1.21,0-2.42-.02-3.63,0-.41.08-.57.54-.55.73.04,1.46.01,2.21.01v5.67h-2.83Z"/>
      <path class="cls-7" d="M306.81,66.01c.26-.47.49-.88.72-1.29l.16-.02c.21.41.43.82.69,1.32h-1.57Z"/>
      <path class="cls-10" d="M311.23,57.32c-.7-2.08-1.54-5.02-1.54-7.28,0-1.73.34-4.22,2.21-8.79l-.06.04c-.06.04-.1.09-.13.15-1.01,2.14-2.34,4.92-3.42,4.92s-2.41-2.78-3.42-4.92c-.03-.06-.07-.11-.13-.14l-.07-.04c1.87,4.57,2.21,7.06,2.21,8.79,0,2.22-.8,5.09-1.5,7.16-.67,1.99-1.4,2.43-2.57,2.43-2.16-.05-5.13-.02-7.3-.02-.8,0-.98-.98-.98-2.26,0-.48-.08-4.95-.14-6.49-.12-1.32.3-4.47-2.79-5.4-9.95-3.77,8.44-38.45,9.45-40.36.38-1.03,1.28-4.83,1.28-5.1-12.84,18.6-18.71,35.19-17.57,41.65.23,1.8,1.13,3.19,2.86,3.94.65.28,1.3.55,1.95.81.84.33,1.48.89,1.67,1.77.27,1.24.51,2.5.58,3.76.12,2.1.07,4.2.15,6.31,0,2.55,1.52,2.54,1.52,2.54,0,0,6.18,0,8.28,0,2.74,0,3.42-.27,3.94-1.36.81-1.73,2.12-4.38,2.52-4.38s1.71,2.65,2.52,4.38c.57.94.91,1.09,1.75,1.41-.49-1.01-1.13-3.03-1.28-3.49Z"/>
    </g>
    <image width="1966" height="2534" transform="translate(0 6) scale(.02)" xlink:href="../../../../2023/SFITAL/Logo/PNG/Labura .png"/>
  </g>
</svg>